HIERARCHY
ROOT Hips
{
  OFFSET 63.1205 97.025 24.5445
  CHANNELS 6 Xposition Yposition Zposition Zrotation Xrotation Yrotation
  JOINT spine
  {
    OFFSET 0 7.96568 0.458067
    CHANNELS 3 Zrotation Xrotation Yrotation
    JOINT spine1
    {
      OFFSET 0 10.2431 0
      CHANNELS 3 Zrotation Xrotation Yrotation
      JOINT spine2
      {
        OFFSET 0 9.81475 0
        CHANNELS 3 Zrotation Xrotation Yrotation
        JOINT Neck
        {
          OFFSET 0 25.1986 1.20138
          CHANNELS 3 Zrotation Xrotation Yrotation
          JOINT Head
          {
            OFFSET 0 7.61315 0
            CHANNELS 3 Zrotation Xrotation Yrotation
            End Site
            {
              OFFSET 0 18.4281 -6.07733
            }
          }
        }
        JOINT RightShoulder
        {
          OFFSET -4.1327 10.5992 -0.575451
          CHANNELS 3 Zrotation Xrotation Yrotation
          JOINT RightArm
          {
            OFFSET 0 13.9018 0
            CHANNELS 3 Zrotation Xrotation Yrotation
            JOINT RightArmRoll
            {
              OFFSET 0 7.01788 0
              CHANNELS 3 Zrotation Xrotation Yrotation
              JOINT RightForeArm
              {
                OFFSET 0 20.4406 0
                CHANNELS 3 Zrotation Xrotation Yrotation
                JOINT RightForeArmRoll
                {
                  OFFSET 0 7.87515 0
                  CHANNELS 3 Zrotation Xrotation Yrotation
                  JOINT RightHand
                  {
                    OFFSET 0 15.8037 0
                    CHANNELS 3 Zrotation Xrotation Yrotation
                    End Site
                    {
                      OFFSET 0 0 0
                    }
                  }
                }
              }
            }
          }
        }
        JOINT LeftShoulder
        {
          OFFSET 4.1327 10.5992 -0.575451
          CHANNELS 3 Zrotation Xrotation Yrotation
          JOINT LeftArm
          {
            OFFSET 0 13.9018 0
            CHANNELS 3 Zrotation Xrotation Yrotation
            JOINT LeftArmRoll
            {
              OFFSET 0 7.01789 0
              CHANNELS 3 Zrotation Xrotation Yrotation
              JOINT LeftForeArm
              {
                OFFSET 0 20.4406 0
                CHANNELS 3 Zrotation Xrotation Yrotation
                JOINT LeftForeArmRoll
                {
                  OFFSET 0 7.87515 0
                  CHANNELS 3 Zrotation Xrotation Yrotation
                  JOINT LeftHand
                  {
                    OFFSET 0 15.8037 0
                    CHANNELS 3 Zrotation Xrotation Yrotation
                    End Site
                    {
                      OFFSET 0 0 0
                    }
                  }
                }
              }
            }
          }
        }
      }
    }
  }
  JOINT RightUpLeg
  {
    OFFSET -7.06048 -1.2947 -1.08609
    CHANNELS 3 Zrotation Xrotation Yrotation
    JOINT RightUpLegRoll
    {
      OFFSET 0 18.5308 0
      CHANNELS 3 Zrotation Xrotation Yrotation
      JOINT RightLeg
      {
        OFFSET 0 -22.9476 0
        CHANNELS 3 Zrotation Xrotation Yrotation
        JOINT RightLegRoll
        {
          OFFSET 0 23.0226 0
          CHANNELS 3 Zrotation Xrotation Yrotation
          JOINT RightFoot
          {
            OFFSET 0 19.1625 0
            CHANNELS 3 Zrotation Xrotation Yrotation
            JOINT RightToeBase
            {
              OFFSET 0 16.0188 0
              CHANNELS 3 Zrotation Xrotation Yrotation
              End Site
              {
                OFFSET 0.00678979 7.75782 -0.894206
              }
            }
          }
        }
      }
    }
  }
  JOINT LeftUpLeg
  {
    OFFSET 7.06048 -1.2947 -1.08609
    CHANNELS 3 Zrotation Xrotation Yrotation
    JOINT LeftUpLegRoll
    {
      OFFSET 0 18.5309 0
      CHANNELS 3 Zrotation Xrotation Yrotation
      JOINT LeftLeg
      {
        OFFSET 0 22.9475 0
        CHANNELS 3 Zrotation Xrotation Yrotation
        JOINT LeftLegRoll
        {
          OFFSET 0 23.2355 0
          CHANNELS 3 Zrotation Xrotation Yrotation
          JOINT LeftFoot
          {
            OFFSET 0 18.9496 0
            CHANNELS 3 Zrotation Xrotation Yrotation
            JOINT LeftToeBase
            {
              OFFSET 0 16.0188 0
              CHANNELS 3 Zrotation Xrotation Yrotation
              End Site
              {
                OFFSET -0.0304289 7.75782 -0.894206
              }
            }
          }
        }
      }
    }
  }
}
MOTION
Frames: 11
Frame Time: 0.00208333
61.2701 97.0068 24.0908 0.132305 -6.71895 4.67445 -0.460444 -1.09711 -0.27106 -0.924035 1.81042 -0.490983 -0.918946 3.45535 -0.475814 15.8293 23.915 -2.58653 -6.08986 10.554 3.09028 22.0495 -13.2882 -10.059 7.50364 30.7573 88.3563 -3.0045e-006 -2.3427e-007 1.05836e-005 12.3724 88.1294 -6.5463 -7.46504e-006 3.12546e-006 -3.00951 8.03011 -4.95137 0.697615 -66.8247 -0.534842 1.25262 -105.703 18.8378 1.75639 6.52901e-007 1.73721e-006 -7.41131e-007 -11.8245 11.0294 1.79382 3.96173e-006 2.9549e-006 3 -8.02903 -4.95147 -0.69768 177.471 -5.12834 4.00527 180 7.01509e-015 178.768 176.929 5.12476 179.8 -1.49267e-006 -2.57806e-006 0.0505201 -18.3386 67.4615 19.1025 8.13649 25.2327 -3.48774 -172.927 -3.49508 -2.43943 4.54188e-006 -4.6773e-006 -1.2081 -1.15205 -8.58883 0.15061 -8.99474e-007 -5.4305e-006 -0.134958 19.0834 68.4393 -19.9081 -8.13649 25.2327 3.48773 
61.2819 97.0136 24.0919 0.119716 -6.70737 4.64993 -0.459346 -1.10027 -0.270996 -0.921733 1.80409 -0.491004 -0.916641 3.44902 -0.475874 15.7673 23.9037 -2.55104 -6.07927 10.5667 3.10271 22.0926 -13.2798 -10.0458 7.65291 30.6924 88.3484 -3.0045e-006 -2.3427e-007 1.05836e-005 10.0713 87.9092 -4.27091 -7.46504e-006 3.12546e-006 -3.00951 8.03011 -4.95137 0.697615 -66.8416 -0.556376 1.26567 -105.701 18.8055 1.75484 6.52901e-007 1.73721e-006 -7.41131e-007 -11.832 11.0398 1.79523 3.96173e-006 2.9549e-006 3 -8.02903 -4.95147 -0.69768 177.482 -5.11733 3.99781 180 7.01509e-015 178.768 176.93 5.12386 179.8 -1.49267e-006 -2.57806e-006 0.0505364 -18.3393 67.4627 19.1034 8.13649 25.2327 -3.48774 -172.914 -3.49391 -2.45107 4.54188e-006 -4.6773e-006 -1.20798 -1.15909 -8.58416 0.14976 -8.99474e-007 -5.4305e-006 -0.135603 19.0849 68.4411 -19.9096 -8.13649 25.2327 3.48773 
61.2828 97.0115 24.1096 0.10709 -6.69579 4.62523 -0.458192 -1.10341 -0.270994 -0.919325 1.79782 -0.491159 -0.914227 3.44275 -0.476068 15.7046 23.8907 -2.5152 -6.06959 10.5807 3.11514 22.1377 -13.2716 -10.0329 7.80635 30.6281 88.3401 -3.0045e-006 -2.3427e-007 1.05836e-005 8.14032 87.6787 -2.36741 -7.46504e-006 3.12546e-006 -3.00951 8.03011 -4.95137 0.697615 -66.8578 -0.577509 1.27842 -105.7 18.7734 1.75272 6.52901e-007 1.73721e-006 -7.41131e-007 -11.839 11.0488 1.79643 3.96173e-006 2.9549e-006 3 -8.02903 -4.95147 -0.69768 177.492 -5.10621 3.99044 180 7.01509e-015 178.768 176.931 5.12306 179.8 -1.49267e-006 -2.57806e-006 0.0505527 -18.34 67.4639 19.1042 8.13649 25.2327 -3.48774 -172.902 -3.49287 -2.46195 4.54188e-006 -4.6773e-006 -1.20787 -1.16549 -8.57929 0.148979 -8.99474e-007 -5.4305e-006 -0.136276 19.0866 68.4433 -19.9114 -8.13649 25.2327 3.48773 
61.2866 97.0153 24.1155 0.0945038 -6.68435 4.60034 -0.456992 -1.10648 -0.271044 -0.916834 1.79168 -0.491418 -0.911729 3.43661 -0.476369 15.6413 23.8761 -2.47905 -6.0609 10.5961 3.12755 22.1849 -13.2638 -10.0202 7.96363 30.5645 88.3312 -3.0045e-006 -2.3427e-007 1.05836e-005 6.50414 87.4392 -0.760644 -7.46504e-006 3.12546e-006 -3.00951 8.03011 -4.95137 0.697615 -66.8733 -0.598198 1.29087 -105.7 18.7415 1.75 6.52901e-007 1.73721e-006 -7.41131e-007 -11.8452 11.0563 1.7974 3.96173e-006 2.9549e-006 3 -8.02903 -4.95147 -0.69768 177.502 -5.09512 3.98319 180 7.01509e-015 178.768 176.932 5.12237 179.8 -1.49267e-006 -2.57806e-006 0.050569 -18.3407 67.465 19.105 8.13649 25.2327 -3.48774 -172.89 -3.49208 -2.47222 4.54188e-006 -4.6773e-006 -1.20777 -1.17141 -8.57435 0.148263 -8.99474e-007 -5.4305e-006 -0.136957 19.0885 68.4458 -19.9134 -8.13649 25.2327 3.48773 
61.2952 97.0105 24.0657 0.0820337 -6.67318 4.57522 -0.455756 -1.10943 -0.271131 -0.914283 1.78577 -0.491756 -0.909171 3.4307 -0.476749 15.5777 23.8595 -2.44263 -6.05326 10.613 3.13994 22.2343 -13.2563 -10.0079 8.12447 30.5014 88.3215 -3.0045e-006 -2.3427e-007 1.05836e-005 5.10455 87.1919 0.607559 -7.46504e-006 3.12546e-006 -3.00951 8.03011 -4.95137 0.697615 -66.8885 -0.618398 1.30301 -105.699 18.7101 1.74663 6.52901e-007 1.73721e-006 -7.41131e-007 -11.8508 11.0622 1.79813 3.96173e-006 2.9549e-006 3 -8.02903 -4.95147 -0.69768 177.512 -5.08423 3.97615 180 7.01509e-015 178.768 176.933 5.12175 179.8 -1.49267e-006 -2.57806e-006 0.0505852 -18.3413 67.466 19.1058 8.13649 25.2327 -3.48774 -172.879 -3.49164 -2.482 4.54188e-006 -4.6773e-006 -1.20767 -1.17701 -8.56947 0.147607 -8.99474e-007 -5.4305e-006 -0.137631 19.0905 68.4484 -19.9155 -8.13649 25.2327 3.48773 
61.2971 97.0077 24.0835 0.0697567 -6.66244 4.54984 -0.454494 -1.11222 -0.271243 -0.911698 1.78019 -0.492144 -0.906577 3.42511 -0.477181 15.5137 23.8409 -2.406 -6.04674 10.6314 3.1523 22.2858 -13.2492 -9.99591 8.28852 30.439 88.311 -3.0045e-006 -2.3427e-007 1.05836e-005 3.8963 86.938 1.78236 -7.46504e-006 3.12546e-006 -3.00951 8.03011 -4.95137 0.697615 -66.9033 -0.638066 1.31483 -105.699 18.6794 1.74259 6.52901e-007 1.73721e-006 -7.41131e-007 -11.8557 11.0663 1.79861 3.96173e-006 2.9549e-006 3 -8.02903 -4.95147 -0.69768 177.521 -5.07368 3.96936 180 7.01509e-015 178.768 176.934 5.1212 179.8 -1.49267e-006 -2.57806e-006 0.0506014 -18.3418 67.467 19.1064 8.13649 25.2327 -3.48774 -172.868 -3.49166 -2.49142 4.54188e-006 -4.6773e-006 -1.20758 -1.18242 -8.56479 0.147006 -8.99474e-007 -5.4305e-006 -0.13828 19.0926 68.4511 -19.9177 -8.13649 25.2327 3.48773 
61.2951 97.0118 24.1325 0.057749 -6.65225 4.52417 -0.453215 -1.11481 -0.271367 -0.909101 1.775 -0.492556 -0.903971 3.41993 -0.477636 15.4495 23.8201 -2.36918 -6.04141 10.6514 3.16461 22.3397 -13.2426 -9.98432 8.45551 30.3774 88.2994 -3.0045e-006 -2.3427e-007 1.05836e-005 2.84402 86.6786 2.79905 -7.46504e-006 3.12546e-006 -3.00951 8.03011 -4.95137 0.697615 -66.9179 -0.657159 1.32634 -105.699 18.6493 1.73783 6.52901e-007 1.73721e-006 -7.41131e-007 -11.86 11.0686 1.79884 3.96173e-006 2.9549e-006 3 -8.02903 -4.95147 -0.69768 177.53 -5.06364 3.96288 180 7.01509e-015 178.768 176.935 5.1207 179.8 -1.49267e-006 -2.57806e-006 0.0506175 -18.3423 67.4679 19.1071 8.13649 25.2327 -3.48774 -172.858 -3.49228 -2.5006 4.54188e-006 -4.6773e-006 -1.20749 -1.18781 -8.56043 0.146455 -8.99474e-007 -5.4305e-006 -0.138887 19.0947 68.4538 -19.9199 -8.13649 25.2327 3.48773 
61.28 97.0043 24.1204 0.0460867 -6.64278 4.49818 -0.451928 -1.11715 -0.27149 -0.906516 1.77032 -0.492965 -0.901378 3.41525 -0.478088 15.3853 23.7969 -2.33224 -6.03735 10.6732 3.17686 22.3958 -13.2364 -9.97315 8.62512 30.3165 88.2867 -3.0045e-006 -2.3427e-007 1.05836e-005 1.91984 86.4147 3.68541 -7.46504e-006 3.12546e-006 -3.00951 8.03011 -4.95137 0.697615 -66.9325 -0.675631 1.33751 -105.699 18.6203 1.73231 6.52901e-007 1.73721e-006 -7.41131e-007 -11.8636 11.0689 1.79879 3.96173e-006 2.9549e-006 3 -8.02903 -4.95147 -0.69768 177.538 -5.05424 3.95677 180 7.01509e-015 178.768 176.935 5.12018 179.8 -1.49267e-006 -2.57806e-006 0.0506336 -18.3428 67.4688 19.1076 8.13649 25.2327 -3.48774 -172.848 -3.49359 -2.50967 4.54188e-006 -4.6773e-006 -1.2074 -1.19333 -8.55654 0.145949 -8.99474e-007 -5.4305e-006 -0.139434 19.0968 68.4565 -19.9221 -8.13649 25.2327 3.48773 
61.2856 97.0058 24.1307 0.0348458 -6.63415 4.47185 -0.450645 -1.1192 -0.271601 -0.903967 1.76622 -0.493343 -0.898821 3.41115 -0.478509 15.3211 23.7711 -2.29522 -6.03461 10.6968 3.18905 22.4542 -13.2306 -9.96243 8.79703 30.2564 88.2725 -3.0045e-006 -2.3427e-007 1.05836e-005 1.10161 86.1473 4.46348 -7.46504e-006 3.12546e-006 -3.00951 8.03011 -4.95137 0.697615 -66.9471 -0.69344 1.34835 -105.698 18.5923 1.72599 6.52901e-007 1.73721e-006 -7.41131e-007 -11.8666 11.0671 1.79846 3.96173e-006 2.9549e-006 3 -8.02903 -4.95147 -0.69768 177.546 -5.04566 3.95109 180 7.01509e-015 178.768 176.936 5.11964 179.8 -1.49267e-006 -2.57806e-006 0.0506497 -18.3432 67.4695 19.1081 8.13649 25.2327 -3.48774 -172.839 -3.49572 -2.51877 4.54188e-006 -4.6773e-006 -1.20729 -1.19914 -8.55324 0.145484 -8.99474e-007 -5.4305e-006 -0.139903 19.0988 68.459 -19.9242 -8.13649 25.2327 3.48773 
61.2991 97.0087 24.1386 0.0241017 -6.62651 4.44513 -0.449373 -1.12091 -0.271685 -0.901477 1.7628 -0.493663 -0.896325 3.40773 -0.478871 15.2571 23.7427 -2.25816 -6.03327 10.7224 3.20117 22.5151 -13.2254 -9.95219 8.97094 30.1971 88.2568 -3.0045e-006 -2.3427e-007 1.05836e-005 0.371604 85.8774 5.15092 -7.46504e-006 3.12546e-006 -3.00951 8.03011 -4.95137 0.697615 -66.9619 -0.710542 1.35885 -105.698 18.5657 1.71883 6.52901e-007 1.73721e-006 -7.41131e-007 -11.8689 11.0632 1.79784 3.96173e-006 2.9549e-006 3 -8.02903 -4.95147 -0.69768 177.553 -5.03803 3.94589 180 7.01509e-015 178.768 176.937 5.11908 179.8 -1.49267e-006 -2.57806e-006 0.0506657 -18.3436 67.4702 19.1085 8.13649 25.2327 -3.48774 -172.83 -3.49878 -2.52801 4.54188e-006 -4.6773e-006 -1.20718 -1.20538 -8.55067 0.145053 -8.99474e-007 -5.4305e-006 -0.140279 19.1005 68.4613 -19.9261 -8.13649 25.2327 3.48773 
61.2992 97.0069 24.1456 0.0137811 -6.61967 4.41814 -0.448077 -1.12232 -0.27173 -0.898985 1.75997 -0.493948 -0.893827 3.4049 -0.479197 15.1937 23.7114 -2.22117 -6.03438 10.7498 3.21315 22.5782 -13.2208 -9.94261 9.14858 30.1387 88.2395 -3.0045e-006 -2.3427e-007 1.05836e-005 -0.291919 85.6022 5.76971 -7.46504e-006 3.12546e-006 -3.00951 8.03011 -4.95137 0.697615 -66.9769 -0.726761 1.36891 -105.697 18.5401 1.71065 6.52901e-007 1.73721e-006 -7.41131e-007 -11.8705 11.0572 1.79694 3.96173e-006 2.9549e-006 3 -8.02903 -4.95147 -0.69768 177.559 -5.03109 3.94114 180 7.01509e-015 178.768 176.938 5.11847 179.8 -1.49267e-006 -2.57806e-006 0.0506816 -18.3439 67.4709 19.1089 8.13649 25.2327 -3.48774 -172.822 -3.50279 -2.53697 4.54188e-006 -4.6773e-006 -1.20705 -1.21166 -8.54824 0.144711 -8.99474e-007 -5.4305e-006 -0.140579 19.1021 68.4635 -19.9278 -8.13649 25.2327 3.48773 
